<svg width="151" height="85" viewBox="0 0 151 85" fill="none" xmlns="http://www.w3.org/2000/svg">
    <path d="M10.9773 56.1106V71.0424H2.64205V36.1333H10.7045V49.6674H10.9943C11.5852 48.0538 12.5511 46.7924 13.892 45.8833C15.2443 44.9742 16.8977 44.5197 18.8523 44.5197C20.6932 44.5197 22.2955 44.9288 23.6591 45.747C25.0227 46.5538 26.0795 47.6958 26.8295 49.1731C27.5909 50.6504 27.9659 52.3776 27.9545 54.3549V71.0424H19.6193V55.9913C19.6307 54.5367 19.267 53.4004 18.5284 52.5822C17.7898 51.764 16.75 51.3549 15.4091 51.3549C14.5341 51.3549 13.7614 51.5481 13.0909 51.9345C12.4318 52.3095 11.9148 52.8492 11.5398 53.5538C11.1761 54.2583 10.9886 55.1106 10.9773 56.1106ZM40.5384 71.4856C38.8679 71.4856 37.3849 71.2072 36.0895 70.6504C34.8054 70.0822 33.7884 69.2299 33.0384 68.0936C32.2997 66.9458 31.9304 65.5083 31.9304 63.7811C31.9304 62.3265 32.1861 61.0992 32.6974 60.0992C33.2088 59.0992 33.9134 58.2867 34.8111 57.6617C35.7088 57.0367 36.7429 56.5651 37.9134 56.247C39.0838 55.9174 40.3338 55.6958 41.6634 55.5822C43.152 55.4458 44.3509 55.3038 45.2599 55.1561C46.169 54.997 46.8281 54.7754 47.2372 54.4913C47.6577 54.1958 47.8679 53.7811 47.8679 53.247V53.1617C47.8679 52.2867 47.5668 51.6106 46.9645 51.1333C46.3622 50.6561 45.5497 50.4174 44.527 50.4174C43.4247 50.4174 42.5384 50.6561 41.8679 51.1333C41.1974 51.6106 40.7713 52.2697 40.5895 53.1106L32.902 52.8379C33.1293 51.247 33.7145 49.8265 34.6577 48.5765C35.6122 47.3151 36.919 46.3265 38.5781 45.6106C40.2486 44.8833 42.2543 44.5197 44.5952 44.5197C46.2656 44.5197 47.8054 44.7186 49.2145 45.1163C50.6236 45.5026 51.8509 46.0708 52.8963 46.8208C53.9418 47.5595 54.7486 48.4686 55.3168 49.5481C55.8963 50.6276 56.1861 51.8606 56.1861 53.247V71.0424H48.3452V67.3947H48.1406C47.6747 68.2811 47.0781 69.0311 46.3509 69.6447C45.6349 70.2583 44.7884 70.7186 43.8111 71.0254C42.8452 71.3322 41.7543 71.4856 40.5384 71.4856ZM43.1122 66.0311C44.0099 66.0311 44.8168 65.8492 45.5327 65.4856C46.2599 65.122 46.8395 64.622 47.2713 63.9856C47.7031 63.3379 47.919 62.5879 47.919 61.7356V59.247C47.6804 59.372 47.3906 59.4856 47.0497 59.5879C46.7202 59.6901 46.3565 59.7867 45.9588 59.8776C45.5611 59.9686 45.152 60.0481 44.7315 60.1163C44.3111 60.1845 43.9077 60.247 43.5213 60.3038C42.7372 60.4288 42.0668 60.622 41.5099 60.8833C40.9645 61.1447 40.544 61.4856 40.2486 61.9061C39.9645 62.3151 39.8224 62.8038 39.8224 63.372C39.8224 64.2356 40.1293 64.8947 40.7429 65.3492C41.3679 65.8038 42.1577 66.0311 43.1122 66.0311ZM61.2827 71.0424V36.1333H69.6179V49.3436H69.7884C70.1293 48.5481 70.6122 47.7811 71.2372 47.0424C71.8736 46.3038 72.6804 45.7015 73.6577 45.2356C74.6463 44.7583 75.8281 44.5197 77.2031 44.5197C79.0213 44.5197 80.7202 44.997 82.2997 45.9515C83.8906 46.9061 85.1747 48.3776 86.152 50.3663C87.1293 52.3549 87.6179 54.889 87.6179 57.9686C87.6179 60.9345 87.1463 63.4174 86.2031 65.4174C85.2713 67.4174 84.0099 68.9174 82.419 69.9174C80.8395 70.9174 79.0838 71.4174 77.152 71.4174C75.8338 71.4174 74.6918 71.2015 73.7259 70.7697C72.7599 70.3379 71.9474 69.7697 71.2884 69.0651C70.6406 68.3606 70.1406 67.6049 69.7884 66.7981H69.5327V71.0424H61.2827ZM69.4474 57.9515C69.4474 59.3606 69.6349 60.5879 70.0099 61.6333C70.3963 62.6788 70.9474 63.4913 71.6634 64.0708C72.3906 64.639 73.2599 64.9231 74.2713 64.9231C75.294 64.9231 76.1634 64.639 76.8793 64.0708C77.5952 63.4913 78.1349 62.6788 78.4986 61.6333C78.8736 60.5879 79.0611 59.3606 79.0611 57.9515C79.0611 56.5424 78.8736 55.3208 78.4986 54.2867C78.1349 53.2526 77.5952 52.4515 76.8793 51.8833C76.1747 51.3151 75.3054 51.0311 74.2713 51.0311C73.2486 51.0311 72.3793 51.3095 71.6634 51.8663C70.9474 52.4231 70.3963 53.2186 70.0099 54.2526C69.6349 55.2867 69.4474 56.5197 69.4474 57.9515ZM91.9858 71.0424V44.8606H100.321V71.0424H91.9858ZM96.1619 41.8095C94.9915 41.8095 93.9858 41.4231 93.1449 40.6504C92.304 39.8663 91.8835 38.9231 91.8835 37.8208C91.8835 36.7299 92.304 35.7981 93.1449 35.0254C93.9858 34.2413 94.9915 33.8492 96.1619 33.8492C97.3438 33.8492 98.3494 34.2413 99.179 35.0254C100.02 35.7981 100.44 36.7299 100.44 37.8208C100.44 38.9231 100.02 39.8663 99.179 40.6504C98.3494 41.4231 97.3438 41.8095 96.1619 41.8095ZM120.405 44.8606V50.997H103.888V44.8606H120.405ZM107.348 38.5879H115.683V62.8095C115.683 63.3208 115.763 63.7356 115.922 64.0538C116.092 64.3606 116.337 64.5822 116.655 64.7186C116.973 64.8436 117.354 64.9061 117.797 64.9061C118.115 64.9061 118.45 64.8776 118.803 64.8208C119.166 64.7526 119.439 64.6958 119.621 64.6504L120.882 70.6674C120.484 70.7811 119.922 70.9231 119.195 71.0936C118.479 71.264 117.621 71.372 116.621 71.4174C114.666 71.5083 112.99 71.2811 111.592 70.7356C110.206 70.1788 109.143 69.3151 108.405 68.1447C107.678 66.9742 107.325 65.5026 107.348 63.7299V38.5879ZM147.188 52.8549L139.534 53.0595C139.455 52.514 139.239 52.0311 138.886 51.6106C138.534 51.1788 138.074 50.8436 137.506 50.6049C136.949 50.3549 136.301 50.2299 135.562 50.2299C134.597 50.2299 133.773 50.4231 133.091 50.8095C132.42 51.1958 132.091 51.7186 132.102 52.3776C132.091 52.889 132.295 53.3322 132.716 53.7072C133.148 54.0822 133.915 54.3833 135.017 54.6106L140.062 55.5651C142.676 56.0651 144.619 56.8947 145.892 58.0538C147.176 59.2129 147.824 60.747 147.835 62.6561C147.824 64.4515 147.29 66.014 146.233 67.3436C145.188 68.6731 143.756 69.7072 141.938 70.4458C140.119 71.1731 138.04 71.5367 135.699 71.5367C131.96 71.5367 129.011 70.7697 126.852 69.2356C124.705 67.6901 123.477 65.622 123.17 63.0311L131.403 62.8265C131.585 63.7811 132.057 64.5083 132.818 65.0083C133.58 65.5083 134.551 65.7583 135.733 65.7583C136.801 65.7583 137.67 65.5595 138.341 65.1617C139.011 64.764 139.352 64.2356 139.364 63.5765C139.352 62.9856 139.091 62.514 138.58 62.1617C138.068 61.7981 137.267 61.514 136.176 61.3095L131.608 60.4401C128.983 59.9629 127.028 59.0822 125.744 57.7981C124.46 56.5026 123.824 54.8549 123.835 52.8549C123.824 51.1049 124.29 49.6106 125.233 48.372C126.176 47.122 127.517 46.1674 129.256 45.5083C130.994 44.8492 133.045 44.5197 135.409 44.5197C138.955 44.5197 141.75 45.264 143.795 46.7526C145.841 48.2299 146.972 50.264 147.188 52.8549Z" fill="white"/>
    <path d="M0 4.04242C0 1.83328 1.79086 0.0424194 4 0.0424194H12C14.2091 0.0424194 16 1.83328 16 4.04242V12.0424C16 14.2516 14.2091 16.0424 12 16.0424H4C1.79086 16.0424 0 14.2516 0 12.0424V4.04242Z" fill="#18181B"/>
    <path d="M20 4.04242C20 1.83328 21.7909 0.0424194 24 0.0424194H32C34.2091 0.0424194 36 1.83328 36 4.04242V12.0424C36 14.2516 34.2091 16.0424 32 16.0424H24C21.7909 16.0424 20 14.2516 20 12.0424V4.04242Z" fill="#4C1D95"/>
    <path d="M40 4.04242C40 1.83328 41.7909 0.0424194 44 0.0424194H52C54.2091 0.0424194 56 1.83328 56 4.04242V12.0424C56 14.2516 54.2091 16.0424 52 16.0424H44C41.7909 16.0424 40 14.2516 40 12.0424V4.04242Z" fill="#5B21B6"/>
    <path d="M60 4.04242C60 1.83328 61.7909 0.0424194 64 0.0424194H72C74.2091 0.0424194 76 1.83328 76 4.04242V12.0424C76 14.2516 74.2091 16.0424 72 16.0424H64C61.7909 16.0424 60 14.2516 60 12.0424V4.04242Z" fill="#6D28D9"/>
    <path d="M80 4.04242C80 1.83328 81.7909 0.0424194 84 0.0424194H92C94.2091 0.0424194 96 1.83328 96 4.04242V12.0424C96 14.2516 94.2091 16.0424 92 16.0424H84C81.7909 16.0424 80 14.2516 80 12.0424V4.04242Z" fill="#7C3AED"/>
    <path d="M100 4.04242C100 1.83328 101.791 0.0424194 104 0.0424194H112C114.209 0.0424194 116 1.83328 116 4.04242V12.0424C116 14.2516 114.209 16.0424 112 16.0424H104C101.791 16.0424 100 14.2516 100 12.0424V4.04242Z" fill="#8B5CF6"/>
    <path d="M4 0.542419H12C13.933 0.542419 15.5 2.10942 15.5 4.04242V12.0424C15.5 13.9754 13.933 15.5424 12 15.5424H4C2.067 15.5424 0.5 13.9754 0.5 12.0424V4.04242C0.5 2.10942 2.067 0.542419 4 0.542419ZM24 0.542419H32C33.933 0.542419 35.5 2.10942 35.5 4.04242V12.0424C35.5 13.9754 33.933 15.5424 32 15.5424H24C22.067 15.5424 20.5 13.9754 20.5 12.0424V4.04242C20.5 2.10942 22.067 0.542419 24 0.542419ZM44 0.542419H52C53.933 0.542419 55.5 2.10942 55.5 4.04242V12.0424C55.5 13.9754 53.933 15.5424 52 15.5424H44C42.067 15.5424 40.5 13.9754 40.5 12.0424V4.04242C40.5 2.10942 42.067 0.542419 44 0.542419ZM64 0.542419H72C73.933 0.542419 75.5 2.10942 75.5 4.04242V12.0424C75.5 13.9754 73.933 15.5424 72 15.5424H64C62.067 15.5424 60.5 13.9754 60.5 12.0424V4.04242C60.5 2.10942 62.067 0.542419 64 0.542419ZM84 0.542419H92C93.933 0.542419 95.5 2.10942 95.5 4.04242V12.0424C95.5 13.9754 93.933 15.5424 92 15.5424H84C82.067 15.5424 80.5 13.9754 80.5 12.0424V4.04242C80.5 2.10942 82.067 0.542419 84 0.542419ZM104 0.542419H112C113.933 0.542419 115.5 2.10942 115.5 4.04242V12.0424C115.5 13.9754 113.933 15.5424 112 15.5424H104C102.067 15.5424 100.5 13.9754 100.5 12.0424V4.04242C100.5 2.10942 102.067 0.542419 104 0.542419Z" stroke="#C4B5FD"/>
    </svg>